<svg width="24"
  height="24" viewBox="0 0 24 24" fill="none" xmlns="http://www.w3.org/2000/svg">
  <path 
    fill="white"
    d="M23.9343 7.05606C23.8781 5.78085 23.6719 4.90415 23.3765 4.14448C23.0718 3.33811 22.6029 2.61617 21.9887 2.01602C21.3885 1.40652 20.6618 0.932921 19.8648 0.632936C19.1007 0.337529 18.2286 0.131312 16.9534 0.0750879C15.6686 0.0141019 15.2608 0 12.0023 0C8.74389 0 8.33603 0.0141019 7.05606 0.0703262C5.78085 0.126551 4.90415 0.332951 4.14467 0.628174C3.33811 0.932921 2.61617 1.40176 2.01602 2.01602C1.40652 2.61617 0.933104 3.34288 0.632936 4.13991C0.337529 4.90415 0.131312 5.77609 0.0750878 7.0513C0.0141019 8.33604 0 8.74389 0 12.0023C0 15.2608 0.0141019 15.6686 0.0703262 16.9486C0.126551 18.2238 0.332951 19.1005 0.628357 19.8602C0.933104 20.6666 1.40652 21.3885 2.01602 21.9887C2.61617 22.5982 3.34287 23.0718 4.1399 23.3717C4.90415 23.6672 5.77609 23.8734 7.05148 23.9296C8.33127 23.986 8.73931 23.9999 11.9978 23.9999C15.2562 23.9999 15.6641 23.986 16.944 23.9296C18.2192 23.8734 19.0959 23.6672 19.8554 23.3717C21.4684 22.7481 22.7436 21.4729 23.3672 19.8602C23.6624 19.0959 23.8688 18.2238 23.925 16.9486C23.9812 15.6686 23.9953 15.2608 23.9953 12.0023C23.9953 8.74389 23.9906 8.33604 23.9343 7.05606ZM21.7731 16.8548C21.7215 18.027 21.5246 18.6599 21.3605 19.0818C20.9572 20.1274 20.1274 20.9572 19.0818 21.3605C18.6599 21.5246 18.0224 21.7215 16.8548 21.7729C15.589 21.8293 15.2093 21.8432 12.0071 21.8432C8.80487 21.8432 8.42046 21.8293 7.15917 21.7729C5.98707 21.7215 5.35413 21.5246 4.93217 21.3605C4.41187 21.1682 3.93827 20.8634 3.55385 20.4649C3.15534 20.0758 2.85059 19.6069 2.65829 19.0866C2.4942 18.6646 2.29732 18.027 2.24586 16.8596C2.18945 15.5937 2.17553 15.2139 2.17553 12.0117C2.17553 8.80946 2.18945 8.42504 2.24586 7.16393C2.29732 5.99183 2.4942 5.35889 2.65829 4.93694C2.85059 4.41645 3.15534 3.94303 3.55861 3.55843C3.94761 3.15992 4.41645 2.85517 4.93693 2.66306C5.35889 2.49896 5.99659 2.30208 7.16393 2.25044C8.4298 2.19421 8.80964 2.18011 12.0117 2.18011C15.2187 2.18011 15.5983 2.19421 16.8596 2.25044C18.0317 2.30208 18.6646 2.49896 19.0866 2.66306C19.6069 2.85517 20.0805 3.15992 20.4649 3.55843C20.8634 3.94761 21.1682 4.41645 21.3605 4.93694C21.5246 5.35889 21.7215 5.99641 21.7731 7.16393C21.8293 8.4298 21.8434 8.80946 21.8434 12.0117C21.8434 15.2139 21.8293 15.589 21.7731 16.8548Z" />
  <path 
    fill="white"
    d="M12.0024 5.83691C8.59869 5.83691 5.8371 8.59832 5.8371 12.0022C5.8371 15.406 8.59869 18.1674 12.0024 18.1674C15.4062 18.1674 18.1676 15.406 18.1676 12.0022C18.1676 8.59832 15.4062 5.83691 12.0024 5.83691ZM12.0024 16.0014C9.79423 16.0014 8.00311 14.2105 8.00311 12.0022C8.00311 9.79386 9.79423 8.00292 12.0024 8.00292C14.2107 8.00292 16.0016 9.79386 16.0016 12.0022C16.0016 14.2105 14.2107 16.0014 12.0024 16.0014Z" />
  <path 
    fill="white"
    d="M19.8508 5.59312C19.8508 6.38795 19.2064 7.03243 18.4114 7.03243C17.6165 7.03243 16.972 6.38795 16.972 5.59312C16.972 4.7981 17.6165 4.15381 18.4114 4.15381C19.2064 4.15381 19.8508 4.7981 19.8508 5.59312Z" />
</svg>