<svg width="36" height="36" viewBox="0 0 36 36" fill="none" xmlns="http://www.w3.org/2000/svg">
<g clip-path="url(#clip0_79_136)">
<path d="M18.0011 13.0662C15.2758 13.0662 13.0663 15.2757 13.0663 18.001C13.0663 20.7263 15.2758 22.9358 18.0011 22.9358C20.7264 22.9358 22.9359 20.7263 22.9359 18.001C22.9359 15.2757 20.7264 13.0662 18.0011 13.0662ZM18.0101 18.6743C17.64 18.6743 17.3396 18.3689 17.3424 17.9948C17.3447 17.6235 17.6462 17.3305 17.9988 17.3271C18.4134 17.3232 18.6947 17.6039 18.6947 18.0089C18.6947 18.393 18.4055 18.6743 18.0095 18.6737L18.0101 18.6743Z" fill="white"/>
<path d="M18.0011 0C8.0595 0 0 8.0595 0 18.0011C0 27.9428 8.0595 36.0023 18.0011 36.0023C27.9428 36.0023 36.0023 27.9428 36.0023 18.0011C36.0023 8.0595 27.9433 0 18.0011 0ZM35.271 18.0011C35.271 18.8072 35.2153 19.6048 35.1068 20.3918C34.8531 20.4176 34.5954 20.4109 34.3412 20.4081C33.6791 20.3996 33.0165 20.3608 32.3561 20.3141C32.0181 20.2899 31.6828 20.2247 31.3464 20.1763C31.2441 20.1617 31.0764 20.1471 30.9729 20.1454C30.4976 20.1386 30.0308 20.0531 29.5605 19.9946C29.4143 19.9766 29.2674 19.9626 29.0644 19.9401C29.1392 19.8349 29.1853 19.7623 29.2388 19.6954C29.934 18.8184 30.6298 17.9421 31.3273 17.0668C31.4128 16.9594 31.5236 16.8688 31.5939 16.7529C31.6974 16.5825 31.8448 16.5465 32.0181 16.5713C32.2577 16.6056 32.4956 16.6517 32.7336 16.6944C33.0564 16.7518 33.3799 16.8075 33.7022 16.8694C34.0903 16.9447 34.4762 17.0319 34.8649 17.1028C34.9926 17.1259 35.1214 17.145 35.2502 17.163C35.2631 17.4414 35.2704 17.7204 35.2704 18.0011H35.271ZM33.8091 24.9638C33.678 24.9744 33.5475 24.9851 33.417 24.9947C32.7493 25.0436 32.0816 25.1274 31.4117 25.0718C30.9803 25.0358 30.5994 24.8524 30.2636 24.579C30.0161 24.3776 29.8491 24.1166 29.682 23.8472C29.1246 22.9472 28.4996 22.1001 27.6525 21.4431C27.5833 21.3891 27.5271 21.3188 27.4607 21.2518C27.4573 21.0499 27.6176 20.9419 27.7453 20.8373C27.8505 20.7512 28.0029 20.7017 28.1413 20.6814C29.5729 20.4694 31.0028 20.6139 32.4298 20.7298C33.2865 20.7996 34.1331 20.9503 34.9397 21.2698C34.9464 21.2726 34.9538 21.2754 34.9605 21.2783C34.7344 22.4567 34.3856 23.6081 33.9142 24.723C33.8799 24.804 33.8445 24.8839 33.8091 24.9638ZM31.5152 25.6843C32.1992 25.4025 32.8815 25.3704 33.5841 25.4554C33.3624 25.9183 33.1206 26.3694 32.8601 26.8088C32.3308 26.5421 31.8572 26.2193 31.5152 25.6849V25.6843ZM32.3094 27.6773C31.9984 28.1368 31.6642 28.5812 31.3088 29.0098C31.2463 28.9254 31.1856 28.8428 31.1271 28.7584C30.8199 28.3134 30.5156 27.8668 30.2181 27.4151C29.9126 26.9516 29.6899 26.4561 29.5841 25.902C29.5054 25.4903 29.5194 25.0819 29.5223 24.6707C29.5223 24.6268 29.5448 24.5829 29.5566 24.5385C29.5819 24.5306 29.6072 24.5222 29.6325 24.5143C30.5179 25.56 31.4049 26.6074 32.3106 27.6773H32.3094ZM21.4909 23.9496C21.663 24.1785 21.447 24.6313 21.3109 24.8985C21.1556 25.2045 20.9554 25.488 20.7816 25.7822C20.6353 26.0303 20.4806 26.2738 20.313 26.5078C20.1566 26.7255 19.9851 26.9663 19.9356 27.0073C19.9328 26.8914 19.9193 26.7413 19.9148 26.6783C19.8883 26.2744 19.8748 25.8694 19.8568 25.4649C19.8354 24.9458 19.8276 24.3518 20.2742 24.0615C20.4137 24.0092 20.5504 23.9524 20.6854 23.8911C20.6837 23.8916 20.6826 23.8927 20.6814 23.8933C20.6831 23.8927 20.6842 23.8916 20.6859 23.8911C20.7349 23.8686 20.7833 23.8461 20.8316 23.8224C21.0696 23.7212 21.2996 23.6936 21.4914 23.9501L21.4909 23.9496ZM4.14787 26.0972C4.33238 25.8879 4.47975 25.8086 4.79644 25.6208C4.84987 25.8289 4.76606 26.0764 4.67775 26.3554C4.45331 27.0619 4.25306 27.504 3.90938 27.9889C3.48919 27.3977 3.10838 26.7806 2.76581 26.1399C3.02119 26.0527 3.47119 25.9751 3.76256 25.9802C3.67875 26.1523 3.73106 26.5883 3.45881 26.8667C3.76538 26.7531 3.93863 26.3346 4.14844 26.0972H4.14787ZM3.74906 25.5729C3.57694 25.5943 3.40763 25.6472 3.24056 25.6973C3.04144 25.7569 2.84175 25.8221 2.63419 25.8896C2.47556 25.5803 2.3265 25.2653 2.18588 24.9458C2.7765 24.4536 3.2715 23.8449 3.94763 23.4619C4.25981 23.2847 4.608 23.1441 4.95788 23.0687C5.36625 22.9804 5.54119 22.9523 5.96194 22.9376C6.27187 22.9269 6.39844 22.9663 6.5565 22.986C6.12731 23.5569 5.75775 24.0947 5.33981 24.5919C4.92469 25.0864 4.43138 25.488 3.75019 25.5729H3.74906ZM2.06606 24.6684C1.96538 24.4282 1.86975 24.1864 1.78088 23.9428C2.23594 23.9839 2.40412 23.9141 2.556 23.9985C2.46769 24.2994 2.24719 24.4688 2.06663 24.669L2.06606 24.6684ZM4.69294 22.6986C4.16306 22.8026 3.61913 22.8488 3.11231 23.0529C2.98913 23.1024 2.86706 23.1683 2.76413 23.2504C2.43506 23.5136 2.05256 23.5772 1.6605 23.6008C1.40569 22.8578 1.20263 22.1006 1.05244 21.3317C1.47656 21.0707 1.89281 20.8108 2.3175 20.5661C2.62688 20.3878 2.916 20.1763 3.27206 20.0728C3.62138 19.9716 3.95156 20.0166 4.28119 20.1021C5.37863 20.3861 6.47438 20.6769 7.56675 20.9807C7.73888 21.0285 7.88963 21.1545 8.07244 21.2569C7.68094 21.7778 7.22813 22.1861 6.60488 22.3324C5.97375 22.4803 5.32969 22.5737 4.69294 22.6986ZM1.41694 13.1681C1.54631 13.3003 1.64025 13.4533 1.72294 13.6395H1.287C1.32806 13.482 1.37194 13.3251 1.4175 13.1681H1.41694ZM1.89619 11.754C2.43169 11.9396 2.90756 12.2333 3.38625 12.5235C3.95213 12.8666 4.50225 13.2379 5.07994 13.5585C5.4315 13.7537 5.82638 13.8684 6.19594 14.0321C6.939 14.3618 7.56112 14.8371 7.99425 15.5413C8.22038 15.9086 8.37225 16.3007 8.49769 16.794C8.20688 16.6967 7.96556 16.6528 7.76194 16.5403C7.30181 16.2866 6.84731 16.0189 6.41475 15.7213C5.6835 15.2179 4.90556 14.8067 4.05731 14.5569C3.21356 14.3083 2.50144 13.8634 1.86694 13.2722C1.74262 13.1563 1.61438 13.0438 1.48613 12.9313C1.60763 12.5347 1.74488 12.1421 1.89563 11.754H1.89619ZM8.21194 5.42644C8.00663 5.02875 7.80019 4.62994 7.58925 4.22156C7.80188 4.06069 8.01844 3.90431 8.23781 3.75356C8.25469 4.33406 8.21588 4.89038 8.21194 5.42644ZM8.22375 5.42419C8.22375 5.42419 8.22094 5.42475 8.21925 5.42531C8.22094 5.42531 8.22262 5.42475 8.22375 5.42419ZM8.20631 5.42869C8.20631 5.42869 8.20238 5.42981 8.20069 5.42981C8.20238 5.42981 8.20406 5.42925 8.20631 5.42869ZM7.59881 5.93438C7.14544 5.74931 6.804 5.45175 6.41081 5.19919C6.63244 4.99781 6.85913 4.80375 7.09031 4.61475C7.40813 4.97081 7.62413 5.36738 7.59881 5.93438ZM26.8256 6.03563C26.8189 6.04631 26.775 6.03394 26.7328 6.03169C27.0281 5.2335 27.3195 4.44544 27.6137 3.65063C27.7791 3.76144 27.9416 3.87563 28.1031 3.99206C27.675 4.67944 27.2514 5.35838 26.8262 6.03563H26.8256ZM28.3162 4.14787C28.7224 4.45106 29.115 4.77338 29.4953 5.11369C29.3535 5.292 29.214 5.4675 29.0751 5.64019C28.6959 6.11212 28.3174 6.58406 27.9354 7.05375C27.6879 7.35806 27.4449 7.66687 27.1828 7.95825C26.8847 8.28956 26.523 8.50556 26.0044 8.48363C26.2699 7.93744 26.5562 7.43513 26.829 6.92606C27.1024 6.417 27.3752 5.90737 27.648 5.39719C27.8674 4.98712 28.0868 4.5765 28.3151 4.14787H28.3162ZM27.1429 4.3785C26.8313 5.22675 26.5314 6.08063 26.1833 6.91369C25.9149 7.55494 25.5943 8.17537 25.2675 8.78963C25.1651 8.98256 24.9919 9.16369 24.8074 9.28181C24.183 9.68175 23.5401 10.0524 22.9016 10.4304C22.8302 10.4726 22.7436 10.4895 22.6457 10.5249C22.5849 10.2735 22.7261 10.1003 22.8268 9.93656C23.427 8.96062 24.0396 7.992 24.6538 7.02506C25.2636 6.06544 25.8109 5.0715 26.3098 4.05C26.4594 3.744 26.6046 3.4335 26.7559 3.11231C26.9843 3.24675 27.2098 3.38625 27.4314 3.53138C27.3375 3.81769 27.2453 4.10063 27.1429 4.3785ZM31.9719 8.9505C32.0839 8.81325 32.2661 8.72719 32.4293 8.64112C32.4512 8.62931 32.4737 8.61919 32.4962 8.60906C32.7561 9.00956 32.9996 9.42075 33.2257 9.84206C33.0306 10.4237 32.8337 11.0048 32.643 11.5881C32.4309 12.2349 32.2273 12.8841 32.0169 13.5315C31.95 13.7374 31.6699 13.9022 31.4218 13.8769C30.8987 13.8246 30.3722 13.7936 29.8592 13.662C29.8125 13.6502 29.1932 13.5444 29.4739 13.1344C29.6437 12.8863 29.8451 12.6585 30.0268 12.4172C30.6849 11.5453 31.1456 10.5632 31.6119 9.58388C31.7166 9.3645 31.8201 9.13612 31.9719 8.9505ZM33.3028 14.1238C32.9518 14.1176 32.8669 14.0018 32.8489 13.653C32.8213 13.1316 33.0446 12.7401 33.4575 12.4549C33.6921 12.2929 33.9362 12.1427 34.1938 11.9852C34.4554 12.6872 34.6702 13.4027 34.8368 14.1294C34.3254 14.1311 33.8141 14.1334 33.3028 14.1244V14.1238ZM34.9211 14.5204C35.0646 15.2213 35.1641 15.9323 35.2192 16.6517C34.7805 16.5983 34.3603 16.5105 33.9379 16.4458C33.3658 16.3581 32.7971 16.2461 32.2251 16.1449C31.8617 15.1509 32.607 14.3387 33.4316 14.373C33.7539 14.3865 34.0734 14.4495 34.3946 14.4894C34.4239 14.4928 34.4537 14.4906 34.4835 14.4923C34.6269 14.5013 34.7709 14.5108 34.9211 14.5209V14.5204ZM30.9504 9.24525C30.771 9.72506 30.5938 10.2054 30.4065 10.6819C30.141 11.3563 29.7349 11.9492 29.3164 12.5336C29.2421 12.6371 29.1707 12.7429 29.0936 12.8441C28.9586 13.0213 28.7893 13.1096 28.5553 13.0877C27.8213 13.0185 27.1114 13.1372 26.4459 13.4466C26.0308 13.6395 25.6596 13.9146 25.3193 14.2256C24.8811 14.6256 24.4918 15.0694 24.1386 15.5452C24.12 15.57 24.0694 15.6167 24.0323 15.6516C23.9704 15.4924 23.9018 15.336 23.8281 15.1836C23.8635 15.0795 23.9389 14.9299 24.0306 14.8376C24.3512 14.5164 24.6904 14.2149 25.0189 13.9016C25.5763 13.3706 26.1287 12.8334 26.6895 12.3064C27.2649 11.7658 27.8488 11.2348 28.4282 10.6982C28.9119 10.2499 29.3963 9.80156 29.8761 9.34819C30.1916 9.05006 30.546 9.01406 30.9409 9.15469C30.9454 9.19013 30.9589 9.22219 30.9504 9.24525ZM28.2296 13.4511C28.2009 13.6367 27.8179 14.0226 27.4933 14.3466C26.9426 14.8956 26.3784 15.2033 25.9599 15.4918C25.6821 15.6831 25.4413 15.8338 25.3502 15.8799C25.3389 15.8608 25.2281 15.4839 25.2281 15.4839C25.2281 15.4839 25.7608 14.7645 26.2243 14.3218C26.4937 14.0591 27.3656 13.4505 28.2302 13.4505L28.2296 13.4511ZM18.0017 23.7426C14.8365 23.7426 12.2614 21.1674 12.2614 18.0023C12.2614 14.8371 14.8365 12.2619 18.0017 12.2619C21.1669 12.2619 23.742 14.8371 23.742 18.0023C23.742 21.1674 21.1669 23.7426 18.0017 23.7426ZM21.8678 12.8126C21.8711 12.7929 21.8768 12.7721 21.8852 12.7485C22.0219 12.3789 22.2244 12.0549 22.4837 11.7619C22.8032 11.4013 23.1806 11.1083 23.5778 10.8416C23.9833 10.5694 24.4018 10.3174 24.8164 10.0586C24.8462 10.0401 24.8861 10.0361 24.9525 10.0164C24.8844 11.5976 24.0818 12.8548 23.1278 14.0524C22.7666 13.5844 22.3425 13.1664 21.8683 12.8126H21.8678ZM26.2254 3.46219C25.8564 4.14281 25.5009 4.833 25.0875 5.48663C24.5846 6.28144 24.0311 7.04475 23.4928 7.81706C23.3871 7.96894 23.2554 8.10506 23.1266 8.2395C23.0873 8.28056 23.0169 8.29237 22.9253 8.33344C23.1531 7.7355 23.4197 7.22138 23.5614 6.65438C22.9731 7.46213 22.5011 8.34244 21.9043 9.22613C21.8829 9.10463 21.8661 9.05344 21.8661 9.00225C21.8638 8.65575 21.8222 8.3025 21.8745 7.96388C21.9909 7.20563 22.1777 6.45975 22.7559 5.89781C23.0501 5.61206 23.3651 5.34488 23.6897 5.09288C24.3152 4.60744 24.8057 4.01175 25.1803 3.321C25.326 3.05213 25.4526 2.77256 25.5853 2.48231C25.8851 2.62913 26.1804 2.78381 26.4707 2.9475C26.3925 3.12469 26.3149 3.29681 26.2254 3.46163V3.46219ZM22.0534 1.47713C22.0539 1.83994 22.0095 2.19488 21.9803 2.55263C21.9499 2.93063 21.9279 3.312 21.8565 3.68325C21.7541 4.21425 21.7209 4.75425 21.5724 5.28188C21.4059 5.8725 21.3216 6.48619 21.2091 7.09144C21.0853 7.75744 20.9728 8.42569 20.8507 9.09169C20.7551 9.61481 20.646 10.1363 20.5549 10.6605C20.4851 11.0599 20.4294 11.4615 20.3771 11.8631C20.3715 11.9053 20.3614 11.9402 20.3468 11.9689C19.9749 11.8243 19.5863 11.7129 19.1846 11.6387C19.1149 9.0495 19.1734 6.23306 19.1424 3.62587C19.1081 2.65838 19.1953 1.70719 19.5322 0.799313C20.3906 0.874125 21.2372 1.0125 22.0691 1.21331C22.0618 1.30388 22.0539 1.39106 22.0539 1.47656L22.0534 1.47713ZM18.6176 1.31062C18.5456 1.12163 18.4731 0.9315 18.3988 0.736875C18.5321 0.739688 18.6649 0.74475 18.7976 0.750375C18.7644 0.9405 18.7082 1.12613 18.6176 1.31006V1.31062ZM18.0017 10.2566C17.9578 9.17944 17.8386 8.70694 17.7491 8.05163C17.6788 7.53638 17.6619 5.92988 17.6203 5.40394C17.4201 3.93131 17.6518 3.24844 16.6939 1.99406L16.74 2.187C17.0859 3.64725 16.7299 4.39819 16.5594 4.47806C16.0644 3.32156 15.57 2.16675 15.0621 0.981C15.9317 0.831938 16.8154 0.750375 17.7098 0.73575C18.9568 3.969 18.3892 6.84225 18.0011 10.2572L18.0017 10.2566ZM16.6646 6.93113C16.9881 8.11181 16.4886 8.8605 16.4363 10.0401C16.4053 10.0457 16.4042 10.0457 16.3732 10.0519C14.6931 7.24837 13.0539 4.84706 11.3996 2.03962C12.1894 1.71225 12.9971 1.44619 13.8201 1.24144C14.8359 3.04931 15.7298 3.52181 16.6646 6.93113ZM12.447 5.09175C11.9363 5.45512 10.3179 3.41044 9.71269 2.84681C9.99 2.69494 10.2718 2.55037 10.5576 2.41369C11.1921 3.30075 11.8378 4.18781 12.447 5.09175ZM13.9078 8.21138C13.9078 8.21138 13.9106 8.20631 13.9118 8.20463C13.9112 8.20631 13.9101 8.208 13.9078 8.21138C9.75769 7.6095 8.83294 8.22994 8.56519 3.53475C8.77725 3.39638 8.99213 3.2625 9.21038 3.13369C12.1337 6.39563 12.8801 6.15375 13.9078 8.21194V8.21138ZM13.9039 8.21813C13.9022 8.22094 13.9028 8.22038 13.9039 8.21813V8.21813ZM15.8591 11.8941C15.1943 12.1275 14.5789 12.4656 14.0332 12.8903C13.1501 11.6949 10.8383 9.14738 10.5789 8.47463C13.0382 9.18394 15.0418 8.89538 15.8591 11.8946V11.8941ZM13.3841 13.4685C12.9122 13.9494 12.5145 14.5035 12.2102 15.1121C12.2102 15.1116 12.2102 15.1104 12.2108 15.1099C11.3985 15.4198 10.8383 15.0486 10.3444 14.5457C9.73125 13.9213 9.2205 13.2165 8.70187 12.5162C8.41106 12.1236 8.08369 11.7585 7.77375 11.3799C7.63706 11.2134 7.51331 11.0346 7.36425 10.8799C7.18819 10.6976 6.894 10.3314 6.64088 10.3146C6.96881 10.9508 7.34288 11.5155 7.76981 12.0476C8.27888 12.6821 8.784 13.32 9.28463 13.9613C9.42244 14.1379 9.53831 14.3319 9.6795 14.5406C9.36169 14.5733 9.11025 14.4804 8.85881 14.3814C8.38519 14.1947 8.02406 13.8864 7.74675 13.4556C7.23431 12.6591 6.6825 11.8879 6.18188 11.0846C5.68181 10.2831 5.25206 9.441 4.84763 8.58656C4.671 8.21306 4.48988 7.84237 4.3155 7.46775C4.53038 7.18931 4.75313 6.91706 4.98544 6.65156C6.34275 7.79456 7.67025 8.93644 9.07369 10.0181C10.5733 11.1021 12.2822 11.9295 13.3841 13.4685ZM4.23169 8.55563C4.75931 9.50063 5.265 10.458 5.77631 11.412C5.79769 11.4514 5.79825 11.502 5.80894 11.5464C5.64131 11.6319 5.53331 11.5082 5.42756 11.4486C4.51181 10.9322 3.69281 10.2853 2.92838 9.567C3.21638 9.05231 3.53025 8.55281 3.87 8.07075C4.00781 8.23388 4.13719 8.38519 4.23225 8.55563H4.23169ZM5.33981 12.1719C5.74538 12.4785 6.13069 12.8115 6.54019 13.1124C6.83944 13.3324 7.02281 13.6423 7.29225 13.9438C6.85238 13.9719 6.48844 13.8634 6.14419 13.7098C5.45794 13.4027 4.84819 12.978 4.30875 12.4515C4.10006 12.2479 3.88181 12.0544 3.64388 11.8339C3.75244 12.0533 3.84806 12.2467 3.94369 12.4397C3.93694 12.4476 3.93244 12.456 3.92513 12.4611C3.91838 12.4661 3.90544 12.4729 3.90094 12.4701C3.30019 12.0735 2.69944 11.6753 2.09138 11.2725C2.25563 10.8849 2.43281 10.5047 2.6235 10.1323C3.53981 10.8186 4.44263 11.4919 5.33981 12.1714V12.1719ZM2.1645 11.5346C2.10038 11.5352 2.034 11.5526 1.97325 11.5616C1.99744 11.5014 2.02219 11.4413 2.04694 11.3811C2.08631 11.4323 2.12513 11.4829 2.1645 11.5346ZM2.19825 14.5536C2.55881 14.7229 2.91263 14.9068 3.27263 15.0784C4.19906 15.5205 5.12775 15.9576 6.05363 16.3997C6.58238 16.6523 7.10831 16.911 7.63538 17.1669C8.03025 17.3588 8.36044 17.6327 8.63888 17.9691C8.811 18.1772 8.973 18.3943 9.171 18.6469C8.84644 18.693 8.56913 18.7211 8.29631 18.7734C7.73156 18.8814 7.1505 18.8606 6.588 18.9973C6.39 19.0457 6.17456 19.0164 5.96869 19.0389C5.32631 19.1109 4.68619 19.2004 4.04325 19.2645C3.35137 19.3337 2.71856 19.1593 2.13019 18.7841C1.63069 18.4652 1.18913 18.0759 0.734625 17.7019C0.754313 16.5234 0.891 15.3641 1.14356 14.2313C1.51594 14.2971 1.86525 14.3972 2.19825 14.553V14.5536ZM0.73125 18.0017C0.73125 17.9871 0.73125 17.973 0.73125 17.9589C0.815625 18.0433 0.89325 18.1316 0.986625 18.2104C0.919688 18.3521 0.828563 18.3645 0.734625 18.3594C0.732375 18.2408 0.730125 18.1215 0.730125 18.0023L0.73125 18.0017ZM2.51269 19.6346C1.989 19.9856 1.50638 20.3304 0.912375 20.5133C0.833625 19.9716 0.779625 19.4248 0.752625 18.873C1.36744 19.0688 1.95638 19.2645 2.51269 19.6341V19.6346ZM6.24544 20.0138C6.06206 19.9614 5.88038 19.9018 5.69925 19.8405C5.64806 19.8231 5.6025 19.7876 5.55469 19.7606C5.55863 19.7432 5.56256 19.7257 5.5665 19.7083C5.80781 19.674 6.04913 19.6397 6.29044 19.6054C6.82931 19.5294 7.36706 19.44 7.90819 19.3821C8.31769 19.3376 8.73281 19.2999 9.14287 19.3191C9.59175 19.3404 9.9945 19.5204 10.2797 19.8911C10.3596 19.9946 10.4063 20.124 10.4743 20.2528C9.88706 20.4795 9.32175 20.5279 8.74181 20.5194C7.87613 20.5065 7.06388 20.2472 6.24544 20.0138ZM9.5355 16.8238C9.34819 16.5364 9.14288 16.2591 8.9775 15.9593C8.85544 15.7382 8.784 15.489 8.69063 15.2528C8.71875 15.2213 8.72381 15.2156 8.75194 15.1841C8.89313 15.2184 9.04556 15.228 9.17438 15.2876C9.55463 15.4648 9.94275 15.6347 10.2977 15.8563C10.7708 16.1511 11.5943 16.7158 11.5706 17.2733C11.5706 17.2749 11.5706 17.2761 11.5706 17.2778C11.5442 17.5151 11.5301 17.7564 11.5301 18.0011C11.5301 18.7819 11.6685 19.5306 11.9216 20.2236C11.7686 20.1735 11.6674 20.0543 11.5785 19.9299C11.3698 19.638 11.1752 19.3354 10.9789 19.035C10.4968 18.2987 10.017 17.5607 9.53606 16.8238H9.5355ZM24.4727 18.0011C24.4727 17.9207 24.4704 17.8408 24.4676 17.7615C24.5565 17.5922 24.7292 17.3391 24.8743 17.2249C25.5263 16.7096 26.1759 16.1916 26.8313 15.6808C27.4354 15.2094 28.0446 14.7448 28.6543 14.2802C28.8506 14.1306 29.0858 14.0766 29.322 14.0946C29.7124 14.1249 30.1005 14.1857 30.4892 14.2363C30.6523 14.2577 30.8143 14.2914 30.978 14.31C31.2204 14.3376 31.9179 14.3994 31.6642 15.0463C31.6226 15.1532 31.5765 15.2595 31.5276 15.3641C31.3532 15.7382 31.0286 15.9075 30.6467 15.9677C30.2237 16.0341 29.8232 16.1691 29.43 16.3266C28.6701 16.6314 27.9714 17.055 27.2638 17.4623C26.5601 17.8673 25.8463 18.2554 25.1381 18.6519C24.9514 18.7566 24.7123 18.9388 24.4187 18.8409C24.4541 18.5659 24.4727 18.2858 24.4727 18.0017V18.0011ZM23.9344 22.1766C24.2055 21.6422 24.336 21.2265 24.6139 20.6961C24.8664 20.2134 25.0054 19.8231 25.2023 19.5936C25.5448 19.1936 25.7209 19.0817 26.1579 18.8083C26.9376 18.3201 27.3369 18.1637 28.1644 17.7654C28.8686 17.4263 29.5914 17.1259 30.3086 16.8143C30.4071 16.7715 30.5207 16.7647 30.627 16.7411C30.1545 17.3762 29.6522 17.9528 29.0571 18.4427C28.6335 18.7914 28.2313 19.1655 27.8033 19.5086C27.1794 20.0081 26.5888 20.6229 26.0331 21.1967C25.4098 21.8402 24.6459 22.4634 23.7038 23.2678C23.6402 23.3218 23.5631 23.3589 23.4371 23.4394C23.4585 23.3089 23.7083 22.6238 23.9344 22.1777V22.1766ZM34.9087 20.8367C34.956 20.7613 35.0078 20.7197 35.0623 20.6966C35.0539 20.7506 35.0449 20.8046 35.0359 20.8586C34.9948 20.8513 34.9526 20.844 34.9087 20.8361V20.8367ZM33.9964 11.4789C33.8063 11.5881 33.6021 11.6724 33.3664 11.7011C33.4446 11.3203 33.5211 10.9491 33.5981 10.5756C33.7084 10.8073 33.8141 11.0413 33.9148 11.2781C33.9429 11.3445 33.9694 11.4114 33.9964 11.4784V11.4789ZM31.2294 6.8985C30.9403 7.38788 30.6236 7.8615 30.2614 8.30475C29.934 8.70469 29.5414 9.03263 29.1223 9.33356C28.7364 9.61088 28.3624 9.90563 27.9788 10.1863C27.2154 10.7449 26.4504 11.3006 25.6832 11.853C25.5988 11.9138 25.4953 11.9469 25.3626 12.0116C25.3856 11.8069 25.3924 11.6364 25.4267 11.4716C25.5336 10.9592 25.6601 10.4513 25.7603 9.93769C25.8131 9.66656 25.9712 9.47813 26.1737 9.32006C26.3284 9.19913 26.4887 9.06806 26.6681 8.99887C27.3527 8.73675 27.7993 8.21644 28.2161 7.65056C28.7134 6.975 29.2224 6.30844 29.7259 5.63794C29.7726 5.57606 29.8187 5.51419 29.8654 5.45231C29.9824 5.56313 30.0982 5.67506 30.2124 5.78925C30.5691 6.14587 30.9071 6.516 31.2289 6.8985H31.2294ZM25.4874 2.43338C25.2799 2.69269 25.0824 2.94019 24.8704 3.1725C24.5925 3.47625 24.4007 3.8655 24.0446 4.095C24.0098 4.07475 24.0024 4.07081 23.9676 4.05113C23.9996 3.32156 24.0317 2.59144 24.0654 1.827C24.2859 1.90969 24.5053 1.99631 24.723 2.088C24.9812 2.19712 25.236 2.31244 25.4874 2.43338ZM6.07613 5.50969C7.974 6.72019 9.78131 8.25075 10.6971 10.287C10.2459 10.4181 8.95669 9.12488 8.47631 8.83688C7.43288 7.96163 6.4125 7.11394 5.41688 6.17569C5.5395 6.04575 5.66325 5.91638 5.78981 5.78981C5.88431 5.69531 5.97994 5.60194 6.07613 5.51025V5.50969ZM5.78981 30.213C5.21269 29.6359 4.68169 29.0239 4.19625 28.3804C4.24181 28.3449 4.28738 28.3106 4.33406 28.2774C4.63838 28.0643 4.71263 27.7161 4.83694 27.405C5.07544 26.8082 5.2605 26.19 5.51475 25.6005C5.69531 25.1814 5.87306 24.7404 6.30562 24.4581C6.444 24.7095 6.33656 25.164 6.04069 25.7923C6.98513 24.9497 6.69431 24.4699 6.85688 23.9265C7.04813 23.2881 7.29 23.2656 7.641 22.6991C7.96613 22.1743 8.379 21.7204 8.88863 21.3773C9.333 21.078 9.64744 20.9301 10.1931 20.8873C10.5666 20.8581 11.0036 20.9323 11.2337 21.2389C11.6055 21.7339 12.0268 22.1068 12.375 22.4533C12.8278 22.9039 13.2801 23.3606 13.6901 23.8967C13.7138 23.9276 13.7351 23.9614 13.7807 24.0266C13.7689 24.4913 13.2249 24.8164 12.9628 24.9711C12.2074 25.416 11.4941 25.704 10.6746 26.0072C10.1447 26.2029 9.64406 26.6985 9.1215 26.9117C8.88188 27.0096 8.27213 27.2807 8.26875 27.6401C8.82 27.2734 9.28688 27.1125 9.64181 27.2244C9.58388 27.5557 9.41288 27.7785 9.22163 27.9849C8.93644 28.2932 8.55731 28.4254 8.16413 28.5289C7.57463 28.6836 7.41206 28.7584 6.82819 28.9316C6.59025 29.0019 6.38269 29.1493 6.10256 29.2748C7.22419 28.9429 7.21238 28.9603 7.57688 28.9361C7.77656 28.9232 7.94925 28.8315 8.34019 28.8011C8.85825 28.7606 8.81606 28.7831 8.74013 28.9794C8.40713 29.6246 8.30981 29.8339 7.99538 30.4431C8.01113 30.4554 8.02631 30.4673 8.04206 30.4796C8.14781 30.3525 8.26481 30.2327 8.35706 30.096C8.87738 29.3316 9.38644 28.5598 9.90788 27.7959C10.1548 27.4342 10.4417 27.1007 10.7719 26.8133C11.4981 26.1821 12.3064 25.6973 13.2857 25.5504C13.4589 25.5246 13.6283 25.4734 13.8015 25.4486C14.0569 25.4126 14.2746 25.4756 14.4647 25.6731C14.9001 26.1259 15.1352 26.6597 15.2634 27.2734C15.4603 28.2161 15.3557 29.1611 15.3546 30.1044C15.3534 31.1141 15.3011 32.1238 15.2578 33.1329C15.2303 33.7776 15.1149 34.5296 14.4028 34.8953C13.3363 34.6691 12.2934 34.3423 11.2804 33.9142C9.22388 33.0446 7.37719 31.7993 5.79094 30.213H5.78981ZM30.213 30.213C28.6268 31.7993 26.7795 33.0446 24.7236 33.9142C23.7381 34.3311 22.7233 34.6517 21.6872 34.8767C20.7939 34.8705 20.7461 33.9334 20.7073 33.5408C20.646 32.9153 20.6837 32.7488 20.7056 32.1159C20.718 31.7638 20.7439 31.4106 20.7889 31.0607C20.8299 30.7451 20.8946 30.4313 20.9689 30.1213C21.0724 29.691 21.1956 29.2652 21.3098 28.8377C21.4819 28.1953 21.5809 27.8657 21.7232 27.5141C21.9611 26.9274 22.0061 26.8026 22.1794 26.5478C22.5461 26.0618 23.3094 25.7248 23.6363 26.3396C24.1521 27.3094 24.6364 28.2966 25.1235 29.2821C25.4093 29.8603 26.1889 30.9915 26.2637 30.9999C26.2013 30.8424 26.1501 30.6793 26.0753 30.5286C25.6725 29.7191 24.6398 27.3364 24.5993 27.1896C24.6729 27.0816 24.7528 27.1007 24.8496 27.1648C25.4436 27.5574 26.0381 27.9495 26.6366 28.3354C26.9618 28.5452 27.2852 28.7601 27.6553 28.8866C27.7701 28.926 28.6526 29.2719 28.7572 29.3068C28.7798 29.2877 28.7893 29.2832 28.7927 29.2759C28.7966 29.2674 28.7978 29.2556 28.7949 29.2466C28.7893 29.2286 28.7859 29.2022 28.7708 29.1954C26.7767 28.2718 25.2428 26.8853 24.12 26.0438C24.3849 25.8092 25.8621 26.6023 26.4403 26.3869C25.2563 25.8958 23.9276 25.0048 23.0856 25.3198C23.5243 24.8372 24.2207 24.0688 24.6718 23.5929C25.0228 23.2222 25.3924 22.869 25.7614 22.5158C26.0426 22.2463 26.3801 22.0697 26.7716 22.0472C27.3403 22.014 27.7965 22.2531 28.1638 22.6817C28.5964 23.1863 28.8332 23.7893 28.9648 24.4221C29.0745 24.9474 29.1414 25.4863 29.1285 26.0303C29.1173 26.505 29.1263 26.9803 29.1263 27.4551C29.1381 27.4703 29.1465 27.4928 29.1623 27.4995C29.8845 27.8303 30.3688 28.4445 30.9184 28.9794C30.9937 29.0531 31.068 29.1291 31.1428 29.2061C30.8469 29.5521 30.5376 29.8879 30.213 30.2124V30.213Z" fill="white"/>
</g>
<defs>
<clipPath id="clip0_79_136">
<rect width="36.0023" height="36.0023" fill="white"/>
</clipPath>
</defs>
</svg>
