<svg width="24" height="24" viewBox="0 0 25 14" fill="none" xmlns="http://www.w3.org/2000/svg">
<path d="M0.5 11.1661C0.5 11.4569 0.607972 11.6768 0.823872 11.8259C1.03979 11.9749 1.27059 12.0276 1.51629 11.984C1.74708 11.9404 1.90902 11.8604 2.00212 11.7441C2.09517 11.6278 2.14172 11.4351 2.14172 11.1661V8.00333C2.14172 7.77792 2.06169 7.58707 1.9016 7.43076C1.74155 7.27444 1.54611 7.19629 1.31529 7.19629C1.09193 7.19629 0.900217 7.27444 0.740135 7.43076C0.580052 7.58707 0.5 7.77792 0.5 8.00333V11.1661ZM3.06864 12.5184C3.06864 12.7293 3.14496 12.8874 3.29758 12.9928C3.45022 13.0983 3.64566 13.151 3.8839 13.151C4.1296 13.151 4.32874 13.0983 4.48139 12.9928C4.63401 12.8874 4.71033 12.7293 4.71033 12.5184V5.14596C4.71033 4.92784 4.63028 4.7406 4.47022 4.5843C4.31014 4.42799 4.1147 4.34982 3.8839 4.34982C3.66054 4.34982 3.46881 4.42799 3.30875 4.5843C3.14867 4.74063 3.06864 4.92784 3.06864 5.14596V12.5184ZM5.62611 12.8674C5.62611 13.0783 5.70428 13.2364 5.86063 13.3418C6.01698 13.4473 6.21801 13.5 6.46373 13.5C6.70196 13.5 6.8974 13.4473 7.05002 13.3418C7.20267 13.2364 7.27899 13.0783 7.27899 12.8674V6.1384C7.27899 5.91302 7.19894 5.72033 7.03888 5.56039C6.8788 5.40044 6.68709 5.32048 6.46373 5.32048C6.23291 5.32048 6.03561 5.40044 5.87182 5.56039C5.70803 5.72033 5.62613 5.91302 5.62613 6.1384L5.62611 12.8674ZM8.19474 12.9001C8.19474 13.3 8.47021 13.5 9.02117 13.5C9.57211 13.5 9.84758 13.3 9.84758 12.9001V1.99412C9.84758 1.38339 9.65772 1.03804 9.27801 0.958052C9.03232 0.899879 8.79033 0.968958 8.55209 1.16527C8.31384 1.36157 8.19472 1.63785 8.19472 1.99412V12.9001H8.19474ZM10.8081 13.2164V1.35067C10.8081 0.972601 10.9235 0.747218 11.1543 0.674496C11.6531 0.558173 12.1482 0.5 12.6396 0.5C13.7787 0.5 14.8397 0.761744 15.8225 1.28523C16.8053 1.80872 17.6001 2.52306 18.2068 3.42826C18.8136 4.33348 19.1654 5.33136 19.2622 6.42198C19.7164 6.23294 20.2003 6.13843 20.714 6.13843C21.7564 6.13843 22.648 6.49832 23.3888 7.21812C24.1296 7.93794 24.5 8.80313 24.5 9.81377C24.5 10.8317 24.1296 11.7005 23.3888 12.4203C22.648 13.1401 21.7601 13.5 20.7252 13.5L11.0091 13.4891C10.942 13.4673 10.8918 13.4273 10.8583 13.3691C10.8248 13.311 10.8081 13.26 10.8081 13.2164Z" fill="white"/>
</svg>
